<svg height="100%" version="1.1" width="100%" xmlns="http://www.w3.org/2000/svg" preserveAspectRatio="xMidYMid meet" viewBox="0 0 600 442" xmlns:xlink="http://www.w3.org/1999/xlink"><desc>Created with Snap</desc><defs/><g id="root" contentwidth="480.00000000000006" contentheight="78.63795287560173">
          <rect class="background" height="2000%" width="2000%" y="-1000%" x="-1000%" style="" fill="#ffffff"/>
          <g class="content" id="content" transform="matrix(0.6081,0,0,0.6081,118.0086,235.6765)">
            <g class="icon" style="mask: url(#mask);">
            <svg height="129.32666666666665" version="1.1" width="789.4" xmlns="http://www.w3.org/2000/svg" x="-95.39999999999998" y="-88.8"><desc>Created with Snap</desc><defs/><svg xmlns:xlink="http://www.w3.org/1999/xlink" version="1.1" xmlns="http://www.w3.org/2000/svg" viewBox="0 0 789.4 129.32666666666665"><defs/><g><path fill="#047391" stroke="none" paint-order="stroke fill markers" d=" M 55 22.5 L 35 22.5 Q 15 22.5 15 42.5 L 15 86.82666666666665 Q 15 106.82666666666665 35 106.82666666666665 L 55 106.82666666666665 C 61.66666666666667 106.82666666666665 61.66666666666667 96.82666666666665 55 96.82666666666665 L 35 96.82666666666665 Q 25 96.82666666666665 25 86.82666666666665 L 25 42.5 Q 25 32.5 35 32.5 L 55 32.5 C 61.66666666666667 32.5 61.66666666666667 22.5 55 22.5 M 734.4 22.5 L 754.4 22.5 Q 774.4 22.5 774.4 42.5 L 774.4 86.82666666666665 Q 774.4 106.82666666666665 754.4 106.82666666666665 L 734.4 106.82666666666665 C 727.7333333333333 106.82666666666665 727.7333333333333 96.82666666666665 734.4 96.82666666666665 L 754.4 96.82666666666665 Q 764.4 96.82666666666665 764.4 86.82666666666665 L 764.4 42.5 Q 764.4 32.5 754.4 32.5 L 734.4 32.5 C 727.7333333333333 32.5 727.7333333333333 22.5 734.4 22.5" style=""/><path fill="#047391" stroke="none" paint-order="stroke fill markers" d=" M 80 27.5 A 5 5 0 1 0 79.9999975000002 27.504999999166667" style=""/><path fill="#047391" stroke="none" paint-order="stroke fill markers" d=" M 80 101.82666666666665 A 5 5 0 1 0 79.9999975000002 101.83166666583332" style=""/><path fill="#047391" stroke="none" paint-order="stroke fill markers" d=" M 719.4 27.5 A 5 5 0 1 0 719.3999975000002 27.504999999166667" style=""/><path fill="#047391" stroke="none" paint-order="stroke fill markers" d=" M 739.4 64.66333333333333 A 5 5 0 1 0 739.3999975000002 64.6683333325" style=""/><path fill="#047391" stroke="none" paint-order="stroke fill markers" d=" M 55 59.66333333333333 L 50 64.66333333333333 L 55 69.66333333333333 L 60 64.66333333333333" style=""/><path fill="#047391" stroke="none" paint-order="stroke fill markers" d=" M 714.4 96.82666666666665 L 709.4 101.82666666666665 L 714.4 106.82666666666665 L 719.4 101.82666666666665" style=""/></g><desc>Created with Snap</desc></svg></svg></g>
            <g id="icon_name_and_slogan_gap">
            </g>
            <g class="name_and_slogan" id="name_and_slogan_id">
              <g class="name"><g id="nameDefaultGroup"><path d="M4.6 -34.1Q4.6 -37 7.5 -37L7.5 -37L12.3 -37Q13.9 -37 14.4 -36Q14.8 -35.1 14.8 -34.1L14.8 -34.1L14.8 -30.6Q15.2 -31.8 16.1 -33Q16.9 -34.3 18.2 -35.4Q19.5 -36.4 21.1 -37Q22.8 -37.7 24.6 -37.7L24.6 -37.7Q32 -37.7 36 -33.6Q40 -29.4 40 -21.6L40 -21.6L40 -0.7Q40 1.9 37.7 1.9L37.7 1.9L32.3 1.9Q31.2 1.9 30.5 1.4Q29.8 0.8 29.8 -0.7L29.8 -0.7L29.8 -24Q29.8 -26.4 29.2 -28.2Q28.7 -29.9 27.6 -30.9Q26.6 -32 25.2 -32.4Q23.8 -32.9 22.2 -32.9L22.2 -32.9Q20.6 -32.9 19.2 -31.9Q17.9 -31 16.9 -29.5Q15.9 -28.1 15.4 -26.5Q14.8 -24.8 14.8 -23.5L14.8 -23.5L14.8 -0.7Q14.8 1.9 12.5 1.9L12.5 1.9L7.1 1.9Q6 1.9 5.3 1.4Q4.6 0.8 4.6 -0.7L4.6 -0.7L4.6 -34.1M47.5 -8.6Q47.5 -12.2 49.5 -14.4Q51.5 -16.6 54.4 -18Q57.4 -19.3 60.8 -20Q64.2 -20.7 67.2 -21.5L67.2 -21.5Q68 -21.7 69.8 -22.3Q71.6 -22.8 73.6 -23.5L73.6 -23.5Q73.6 -28.5 72.1 -31.3Q70.7 -34.1 66.7 -34.1L66.7 -34.1Q64.7 -34.1 63.5 -33.6Q62.4 -33 61.7 -32Q61.1 -31 60.5 -29.5Q60 -27.9 59.1 -26L59.1 -26Q58.8 -25.1 58.4 -24.6Q58 -24 57.5 -23.6Q56.9 -23.3 55.9 -23.1Q55 -23 53.5 -23.3L53.5 -23.3Q50.6 -23.6 49.7 -24.3Q48.8 -25 49.2 -27.1L49.2 -27.1Q49.9 -30.2 51.6 -32.2Q53.2 -34.3 55.6 -35.5Q58 -36.7 60.8 -37.2Q63.6 -37.7 66.7 -37.7L66.7 -37.7Q71.6 -37.7 74.9 -36.8Q78.2 -35.9 80.1 -34.1Q82.1 -32.3 82.9 -29.6Q83.7 -26.8 83.7 -23.1L83.7 -23.1L83.6 -11.2Q83.6 -9.4 83.7 -8.2Q83.9 -6.9 84.2 -5.9Q84.5 -4.8 84.8 -3.9Q85.1 -3 85.5 -1.9L85.5 -1.9Q85.9 -0.6 85.5 0.2Q85 0.9 82.7 1.9L82.7 1.9Q79.6 3.2 78.2 3Q76.8 2.7 75.7 1.3L75.7 1.3Q75.2 0.5 74.7 -0.3Q74.2 -1 73.5 -2.7L73.5 -2.7Q70.9 -0.3 68 1.2Q65 2.7 60.3 2.7L60.3 2.7Q57.6 2.7 55.3 1.9Q52.9 1.1 51.2 -0.4Q49.5 -1.9 48.5 -3.9Q47.5 -6 47.5 -8.6L47.5 -8.6M57.7 -8.5Q57.7 -6 58.2 -4.5Q58.8 -3 59.5 -2.3Q60.3 -1.6 61.4 -1.4Q62.5 -1.2 63.6 -1.2L63.6 -1.2Q65.7 -1.4 67.5 -2.1Q69.3 -2.9 70.6 -4.1Q72 -5.3 72.8 -7.1Q73.6 -8.9 73.6 -11.1L73.6 -11.1L73.6 -20.1Q71.9 -19.3 70.1 -18.7Q68.4 -18.1 66.3 -17.4L66.3 -17.4Q63.8 -16.6 62.1 -15.8Q60.5 -15 59.5 -14Q58.5 -13 58.1 -11.6Q57.7 -10.3 57.7 -8.5L57.7 -8.5M93.2 -34.1Q93.2 -37 96 -37L96 -37L100.9 -37Q102.5 -37 102.9 -36Q103.4 -35.1 103.4 -34.1L103.4 -34.1L103.4 -30.6Q103.8 -31.8 104.6 -33Q105.5 -34.3 106.8 -35.4Q108.1 -36.4 109.7 -37Q111.3 -37.7 113.2 -37.7L113.2 -37.7Q120.6 -37.7 124.6 -33.6Q128.6 -29.4 128.6 -21.6L128.6 -21.6L128.6 -0.7Q128.6 1.9 126.2 1.9L126.2 1.9L120.9 1.9Q119.7 1.9 119.1 1.4Q118.4 0.8 118.4 -0.7L118.4 -0.7L118.4 -24Q118.4 -26.4 117.8 -28.2Q117.2 -29.9 116.2 -30.9Q115.1 -32 113.8 -32.4Q112.4 -32.9 110.8 -32.9L110.8 -32.9Q109.2 -32.9 107.8 -31.9Q106.4 -31 105.4 -29.5Q104.5 -28.1 103.9 -26.5Q103.4 -24.8 103.4 -23.5L103.4 -23.5L103.4 -0.7Q103.4 1.9 101 1.9L101 1.9L95.7 1.9Q94.5 1.9 93.9 1.4Q93.2 0.8 93.2 -0.7L93.2 -0.7L93.2 -34.1M135.9 -17.6Q135.9 -23 137.7 -26.9Q139.4 -30.7 142.2 -33.1Q145 -35.5 148.5 -36.6Q152 -37.7 155.4 -37.7L155.4 -37.7Q158.8 -37.7 162.2 -36.7Q165.7 -35.7 168.5 -33.3Q171.4 -31 173.2 -27.1Q175 -23.3 175 -17.6L175 -17.6Q175 -12.2 173.4 -8.3Q171.7 -4.5 169 -2.1Q166.2 0.4 162.7 1.5Q159.2 2.7 155.4 2.7L155.4 2.7Q152 2.7 148.5 1.6Q145 0.5 142.2 -1.9Q139.4 -4.2 137.7 -8.1Q135.9 -12 135.9 -17.6L135.9 -17.6M146.8 -17.6Q146.8 -13.2 147.5 -10.1Q148.2 -7 149.4 -5Q150.6 -3 152.1 -2.1Q153.7 -1.1 155.4 -1.1L155.4 -1.1Q157.2 -1.1 158.8 -2.1Q160.3 -3 161.5 -5Q162.7 -7 163.4 -10.1Q164.1 -13.2 164.1 -17.6L164.1 -17.6Q164.1 -21.9 163.4 -25Q162.7 -28.2 161.5 -30.2Q160.3 -32.2 158.8 -33.2Q157.2 -34.1 155.4 -34.1L155.4 -34.1Q153.7 -34.1 152.1 -33.2Q150.6 -32.2 149.4 -30.2Q148.2 -28.2 147.5 -25Q146.8 -21.9 146.8 -17.6L146.8 -17.6M181 -34.1Q181 -37 183.9 -37L183.9 -37L188.7 -37Q190.3 -37 190.8 -36Q191.2 -35.1 191.2 -34.1L191.2 -34.1L191.2 -30.6Q192.7 -33.6 195.6 -35.6Q198.4 -37.7 202.1 -37.7L202.1 -37.7Q207 -37.7 210.5 -35.4Q214.1 -33 215.4 -29.2L215.4 -29.2Q217.4 -33.1 220.5 -35.4Q223.5 -37.7 228 -37.7L228 -37.7Q231.8 -37.7 234.4 -36.6Q237 -35.6 238.6 -33.5Q240.2 -31.5 240.9 -28.5Q241.6 -25.5 241.6 -21.6L241.6 -21.6L241.6 -0.7Q241.6 1.9 239.3 1.9L239.3 1.9L233.9 1.9Q232.8 1.9 232.1 1.4Q231.4 0.8 231.4 -0.7L231.4 -0.7L231.4 -24Q231.4 -28.9 229.9 -31.2Q228.4 -33.4 225.6 -33.4L225.6 -33.4Q224.1 -33.4 222.5 -32.5Q221 -31.6 219.7 -30.3Q218.4 -29 217.5 -27.5Q216.6 -26.1 216.4 -24.9L216.4 -24.9L216.4 -0.7Q216.4 1.9 214.1 1.9L214.1 1.9L208.7 1.9Q207.6 1.9 206.9 1.4Q206.2 0.8 206.2 -0.7L206.2 -0.7L206.2 -24Q206.2 -28.9 204.8 -31.2Q203.3 -33.4 199.7 -33.4L199.7 -33.4Q198.1 -33.4 196.7 -32.5Q195.3 -31.7 194.2 -30.4Q193 -29.2 192.3 -27.7Q191.5 -26.2 191.2 -24.9L191.2 -24.9L191.2 -0.7Q191.2 1.9 188.9 1.9L188.9 1.9L183.5 1.9Q182.4 1.9 181.7 1.4Q181 0.8 181 -0.7L181 -0.7L181 -34.1M249 -17.6Q249 -22.8 250.6 -26.6Q252.2 -30.5 254.9 -32.9Q257.6 -35.4 261.2 -36.5Q264.7 -37.7 268.6 -37.7L268.6 -37.7Q272.9 -37.7 276.3 -36.3Q279.7 -34.8 282.1 -32.5Q284.5 -30.2 285.7 -27.1Q286.9 -24.1 286.8 -20.9L286.8 -20.9Q286.8 -18 285.2 -17.1Q283.7 -16.1 280.9 -16.1L280.9 -16.1L260.1 -16.1Q260.1 -13.6 260.5 -11Q260.9 -8.4 261.8 -6.1Q262.8 -3.9 264.5 -2.5Q266.3 -1.1 269 -1.1L269 -1.1Q271.2 -1.1 272.6 -2.2Q274 -3.4 275.1 -4.9Q276.1 -6.5 276.8 -8.1Q277.6 -9.7 278.2 -10.7L278.2 -10.7Q278.9 -11.7 280.1 -12Q281.2 -12.2 283.3 -11.1L283.3 -11.1Q286 -9.7 286.4 -8.6Q286.8 -7.6 286.1 -6.3L286.1 -6.3Q283.6 -1.9 279.1 0.4Q274.7 2.7 269.3 2.7L269.3 2.7Q265.1 2.7 261.4 1.5Q257.8 0.3 255 -2.2Q252.2 -4.7 250.6 -8.5Q249 -12.3 249 -17.6L249 -17.6M275.9 -19.7Q275.9 -22.2 275.8 -24.8Q275.8 -27.4 275 -29.4Q274.3 -31.5 272.8 -32.8Q271.2 -34.1 268.3 -34.1L268.3 -34.1Q265.5 -34.1 263.8 -32.8Q262.2 -31.4 261.4 -29.3Q260.5 -27.2 260.3 -24.7Q260.1 -22.1 260.1 -19.7L260.1 -19.7L275.9 -19.7M290.1 -35.3Q290.1 -37 291.6 -37L291.6 -37L295.6 -37L295.6 -46.4Q295.6 -47.5 296.3 -48.4Q296.9 -49.3 298.4 -49.3L298.4 -49.3L303.7 -49.3Q304.9 -49.3 305.7 -48.5Q306.6 -47.6 306.6 -46.4L306.6 -46.4L306.6 -37L312.3 -37Q313.8 -37 313.8 -35.3L313.8 -35.3Q313.8 -33.4 312.3 -33.4L312.3 -33.4L306.6 -33.4L306.6 -10.6Q306.6 -6.3 307.4 -3.9Q308.2 -1.5 309.9 -1.5L309.9 -1.5Q311.1 -1.5 312.4 -2Q313.8 -2.4 314.5 -2.4L314.5 -2.4Q315.5 -2.4 315.8 -2.1Q316 -1.7 316 -0.8L316 -0.8Q316 0.5 315.5 0.9Q315.1 1.2 314.3 1.6L314.3 1.6Q313.5 1.9 311.8 2.3Q310.2 2.7 308.8 2.7L308.8 2.7Q301.5 2.7 298.5 -0.4Q295.6 -3.5 295.6 -9.9L295.6 -9.9L295.6 -33.4L291.6 -33.4Q290.1 -33.4 290.1 -35.3L290.1 -35.3M319.3 -17.6Q319.3 -22.8 320.9 -26.6Q322.6 -30.5 325.3 -32.9Q328 -35.4 331.5 -36.5Q335.1 -37.7 338.9 -37.7L338.9 -37.7Q343.2 -37.7 346.6 -36.3Q350.1 -34.8 352.4 -32.5Q354.8 -30.2 356 -27.1Q357.3 -24.1 357.1 -20.9L357.1 -20.9Q357.1 -18 355.6 -17.1Q354 -16.1 351.2 -16.1L351.2 -16.1L330.4 -16.1Q330.4 -13.6 330.8 -11Q331.2 -8.4 332.2 -6.1Q333.1 -3.9 334.9 -2.5Q336.6 -1.1 339.3 -1.1L339.3 -1.1Q341.5 -1.1 342.9 -2.2Q344.4 -3.4 345.4 -4.9Q346.5 -6.5 347.2 -8.1Q347.9 -9.7 348.6 -10.7L348.6 -10.7Q349.3 -11.7 350.4 -12Q351.6 -12.2 353.7 -11.1L353.7 -11.1Q356.3 -9.7 356.8 -8.6Q357.2 -7.6 356.5 -6.3L356.5 -6.3Q354 -1.9 349.5 0.4Q345 2.7 339.6 2.7L339.6 2.7Q335.4 2.7 331.8 1.5Q328.1 0.3 325.3 -2.2Q322.6 -4.7 320.9 -8.5Q319.3 -12.3 319.3 -17.6L319.3 -17.6M346.2 -19.7Q346.2 -22.2 346.2 -24.8Q346.1 -27.4 345.4 -29.4Q344.7 -31.5 343.1 -32.8Q341.6 -34.1 338.6 -34.1L338.6 -34.1Q335.8 -34.1 334.2 -32.8Q332.6 -31.4 331.7 -29.3Q330.8 -27.2 330.6 -24.7Q330.4 -22.1 330.4 -19.7L330.4 -19.7L346.2 -19.7M364.5 -34.1Q364.5 -37 367.3 -37L367.3 -37L372.9 -37Q374.5 -37 374.9 -36Q375.4 -35.1 375.4 -34.1L375.4 -34.1L375.4 -31.3Q375.8 -32.5 376.5 -33.7Q377.2 -34.8 378.2 -35.7Q379.2 -36.6 380.5 -37.2Q381.8 -37.7 383.4 -37.7L383.4 -37.7Q385.5 -37.7 387.1 -37.3Q388.7 -36.9 389.9 -35.9L389.9 -35.9Q390.9 -34.9 391 -33.7Q391.2 -32.5 389.3 -30.7L389.3 -30.7Q387.9 -29.5 386.8 -29Q385.6 -28.4 385.1 -29.3L385.1 -29.3Q384 -31 383 -32Q382 -33 380.7 -33L380.7 -33Q379.9 -33 379 -32.4Q378.1 -31.8 377.5 -30.7Q376.8 -29.7 376.2 -28.4Q375.7 -27.1 375.4 -25.8L375.4 -25.8L375.4 -0.7Q375.4 1.9 373 1.9L373 1.9L367 1.9Q365.8 1.9 365.1 1.4Q364.5 0.8 364.5 -0.7L364.5 -0.7L364.5 -34.1M399.3 -32.6Q398.9 -33.8 399 -34.3Q399.2 -34.7 400.4 -35.3L400.4 -35.3Q405.6 -37.9 409.9 -41.1Q414.2 -44.4 418.2 -49.4L418.2 -49.4Q419.3 -50.8 420.2 -51.1Q421.1 -51.3 421.6 -51.3L421.6 -51.3L425.2 -51.3Q426 -51.3 426.7 -50.8Q427.4 -50.3 427.4 -48.8L427.4 -48.8L427.4 -1.4Q427.4 0.1 426.9 1Q426.4 1.9 424.5 1.9L424.5 1.9L418.6 1.9Q417 1.9 416.4 1Q415.9 0.1 415.9 -1.5L415.9 -1.5L415.9 -40.5Q413.7 -38.6 410.1 -36.1Q406.4 -33.6 401.7 -31.7L401.7 -31.7Q401 -31.4 400.4 -31.5Q399.7 -31.6 399.3 -32.6L399.3 -32.6M445.1 -22.8Q445.1 -29.5 446.4 -34.8Q447.7 -40.1 450.4 -43.8Q453.1 -47.4 457.2 -49.4Q461.3 -51.3 466.9 -51.3L466.9 -51.3Q471.7 -51.3 475.2 -50.1Q478.6 -48.9 480.7 -47.1Q482.8 -45.3 483.8 -43.2Q484.8 -41.1 484.8 -39.4L484.8 -39.4Q484.9 -36.6 480.4 -36.2L480.4 -36.2Q478.2 -36.1 477.2 -36.5Q476.2 -36.9 475.6 -38.7L475.6 -38.7Q475.1 -40.2 474.4 -41.7Q473.8 -43.2 472.7 -44.4Q471.7 -45.6 470.2 -46.3Q468.7 -47 466.6 -47L466.6 -47Q464 -47 462.3 -46Q460.5 -44.9 459.3 -43.2Q458.1 -41.5 457.5 -39.3Q456.8 -37.1 456.4 -34.8Q456 -32.5 455.9 -30.3Q455.8 -28.1 455.6 -26.4L455.6 -26.4Q457.2 -28.8 460.3 -30.4Q463.5 -32 467.7 -32L467.7 -32Q471.7 -32 475.2 -30.9Q478.7 -29.8 481.2 -27.7Q483.8 -25.6 485.3 -22.4Q486.8 -19.2 486.8 -15.1L486.8 -15.1Q486.8 -11 485.3 -7.7Q483.8 -4.5 481 -2.1Q478.3 0.2 474.4 1.4Q470.6 2.7 465.9 2.7L465.9 2.7Q461.8 2.7 458 1.5Q454.2 0.3 451.4 -2.6Q448.6 -5.5 446.8 -10.4Q445.1 -15.3 445.1 -22.8L445.1 -22.8M456.7 -15.6Q456.7 -11.7 457.5 -9.1Q458.3 -6.5 459.6 -4.8Q460.9 -3.2 462.6 -2.4Q464.3 -1.7 466.2 -1.7L466.2 -1.7Q470.7 -1.7 473.3 -5.1Q475.9 -8.6 475.9 -15L475.9 -15Q475.9 -21 473.7 -24.4Q471.4 -27.8 466.1 -27.8L466.1 -27.8Q461.9 -27.8 459.3 -24.9Q456.7 -22 456.7 -15.6L456.7 -15.6M495.4 -5.6Q495.4 -6.4 495.9 -6.9Q496.4 -7.5 497.2 -7.5L497.2 -7.5L502.8 -7.5Q503.6 -7.5 504.2 -6.9Q504.7 -6.4 504.7 -5.6L504.7 -5.6L504.7 0Q504.6 0.8 504.1 1.3Q503.6 1.9 502.8 1.9L502.8 1.9L497.2 1.9Q496.4 1.9 495.9 1.3Q495.4 0.8 495.4 0L495.4 0L495.4 -5.6M513.5 -16.8Q513.5 -20.9 514.6 -24.7Q515.7 -28.5 518 -31.4Q520.4 -34.3 524.2 -36Q528 -37.7 533.4 -37.7L533.4 -37.7Q537.1 -37.7 540.1 -36.9Q543 -36.1 545.2 -34.6Q547.3 -33.2 548.7 -31.2Q550.1 -29.2 550.6 -27L550.6 -27Q550.9 -25.3 550 -24.7Q549.1 -24 546.8 -23.5L546.8 -23.5Q543.8 -22.9 542.6 -23.2Q541.4 -23.5 540.9 -25.1L540.9 -25.1Q540.3 -27.1 539.7 -28.7Q539.1 -30.3 538.3 -31.5Q537.5 -32.8 536.3 -33.4Q535.1 -34.1 533.3 -34.1L533.3 -34.1Q530.8 -34.1 529 -32.9Q527.2 -31.7 526 -29.4Q524.9 -27.1 524.3 -23.9Q523.7 -20.7 523.7 -16.8L523.7 -16.8Q523.7 -12.5 524.5 -9.6Q525.3 -6.6 526.6 -4.7Q528 -2.8 529.7 -1.9Q531.4 -1.1 533.2 -1.1L533.2 -1.1Q535.1 -1.1 536.4 -1.9Q537.7 -2.7 538.6 -4Q539.6 -5.3 540.3 -7Q540.9 -8.7 541.7 -10.5L541.7 -10.5Q541.9 -11.2 542.3 -11.8Q542.7 -12.4 543.4 -12.7Q544 -13 545 -12.9Q546 -12.7 547.4 -12.2L547.4 -12.2Q549.6 -11.4 550.4 -10.4Q551.2 -9.4 550.7 -7.8L550.7 -7.8Q549.6 -5.2 547.8 -3.2Q546.1 -1.3 543.9 0Q541.7 1.3 539 2Q536.3 2.7 533.4 2.7L533.4 2.7Q529 2.7 525.3 1.4Q521.7 0.1 519 -2.4Q516.4 -4.9 514.9 -8.5Q513.5 -12.1 513.5 -16.8L513.5 -16.8M558.6 -34.1Q558.6 -37 561.5 -37L561.5 -37L566.3 -37Q567.9 -37 568.3 -36Q568.8 -35.1 568.8 -34.1L568.8 -34.1L568.8 -30.6Q569.2 -31.8 570 -33Q570.9 -34.3 572.2 -35.4Q573.5 -36.4 575.1 -37Q576.7 -37.7 578.6 -37.7L578.6 -37.7Q586 -37.7 590 -33.6Q594 -29.4 594 -21.6L594 -21.6L594 -0.7Q594 1.9 591.6 1.9L591.6 1.9L586.3 1.9Q585.1 1.9 584.5 1.4Q583.8 0.8 583.8 -0.7L583.8 -0.7L583.8 -24Q583.8 -26.4 583.2 -28.2Q582.6 -29.9 581.6 -30.9Q580.5 -32 579.2 -32.4Q577.8 -32.9 576.2 -32.9L576.2 -32.9Q574.6 -32.9 573.2 -31.9Q571.8 -31 570.9 -29.5Q569.9 -28.1 569.3 -26.5Q568.8 -24.8 568.8 -23.5L568.8 -23.5L568.8 -0.7Q568.8 1.9 566.4 1.9L566.4 1.9L561.1 1.9Q559.9 1.9 559.3 1.4Q558.6 0.8 558.6 -0.7L558.6 -0.7L558.6 -34.1z" style="" fill="#047391" id="namepathdata"/></g></g>
              <g class="slogan"><g id="sloganDefaultGroup"/></g>
            </g>
            <g class="border">
            </g>
          </g>
          
          <defs id="defs">
            <mask xmlns="http://www.w3.org/2000/svg" id="mask">
                <rect id="showAll" fill="white" x="-95.39999999999998" y="-88.8" width="789.4" height="129.32666666666665"/>
                <rect id="hideNameBg" fill="black" x="0" y="0" width="0" height="0" stroke-width="2" stroke="black"/>
                <rect id="hideSloganBg" fill="black" x="0" y="0" width="0" height="0" stroke-width="2" stroke="black"/>
            <path d="M4.6 -34.1Q4.6 -37 7.5 -37L7.5 -37L12.3 -37Q13.9 -37 14.4 -36Q14.8 -35.1 14.8 -34.1L14.8 -34.1L14.8 -30.6Q15.2 -31.8 16.1 -33Q16.9 -34.3 18.2 -35.4Q19.5 -36.4 21.1 -37Q22.8 -37.7 24.6 -37.7L24.6 -37.7Q32 -37.7 36 -33.6Q40 -29.4 40 -21.6L40 -21.6L40 -0.7Q40 1.9 37.7 1.9L37.7 1.9L32.3 1.9Q31.2 1.9 30.5 1.4Q29.8 0.8 29.8 -0.7L29.8 -0.7L29.8 -24Q29.8 -26.4 29.2 -28.2Q28.7 -29.9 27.6 -30.9Q26.6 -32 25.2 -32.4Q23.8 -32.9 22.2 -32.9L22.2 -32.9Q20.6 -32.9 19.2 -31.9Q17.9 -31 16.9 -29.5Q15.9 -28.1 15.4 -26.5Q14.8 -24.8 14.8 -23.5L14.8 -23.5L14.8 -0.7Q14.8 1.9 12.5 1.9L12.5 1.9L7.1 1.9Q6 1.9 5.3 1.4Q4.6 0.8 4.6 -0.7L4.6 -0.7L4.6 -34.1M47.5 -8.6Q47.5 -12.2 49.5 -14.4Q51.5 -16.6 54.4 -18Q57.4 -19.3 60.8 -20Q64.2 -20.7 67.2 -21.5L67.2 -21.5Q68 -21.7 69.8 -22.3Q71.6 -22.8 73.6 -23.5L73.6 -23.5Q73.6 -28.5 72.1 -31.3Q70.7 -34.1 66.7 -34.1L66.7 -34.1Q64.7 -34.1 63.5 -33.6Q62.4 -33 61.7 -32Q61.1 -31 60.5 -29.5Q60 -27.9 59.1 -26L59.1 -26Q58.8 -25.1 58.4 -24.6Q58 -24 57.5 -23.6Q56.9 -23.3 55.9 -23.1Q55 -23 53.5 -23.3L53.5 -23.3Q50.6 -23.6 49.7 -24.3Q48.8 -25 49.2 -27.1L49.2 -27.1Q49.9 -30.2 51.6 -32.2Q53.2 -34.3 55.6 -35.5Q58 -36.7 60.8 -37.2Q63.6 -37.7 66.7 -37.7L66.7 -37.7Q71.6 -37.7 74.9 -36.8Q78.2 -35.9 80.1 -34.1Q82.1 -32.3 82.9 -29.6Q83.7 -26.8 83.7 -23.1L83.7 -23.1L83.6 -11.2Q83.6 -9.4 83.7 -8.2Q83.9 -6.9 84.2 -5.9Q84.5 -4.8 84.8 -3.9Q85.1 -3 85.5 -1.9L85.5 -1.9Q85.9 -0.6 85.5 0.2Q85 0.9 82.7 1.9L82.7 1.9Q79.6 3.2 78.2 3Q76.8 2.7 75.7 1.3L75.7 1.3Q75.2 0.5 74.7 -0.3Q74.2 -1 73.5 -2.7L73.5 -2.7Q70.9 -0.3 68 1.2Q65 2.7 60.3 2.7L60.3 2.7Q57.6 2.7 55.3 1.9Q52.9 1.1 51.2 -0.4Q49.5 -1.9 48.5 -3.9Q47.5 -6 47.5 -8.6L47.5 -8.6M57.7 -8.5Q57.7 -6 58.2 -4.5Q58.8 -3 59.5 -2.3Q60.3 -1.6 61.4 -1.4Q62.5 -1.2 63.6 -1.2L63.6 -1.2Q65.7 -1.4 67.5 -2.1Q69.3 -2.9 70.6 -4.1Q72 -5.3 72.8 -7.1Q73.6 -8.9 73.6 -11.1L73.6 -11.1L73.6 -20.1Q71.9 -19.3 70.1 -18.7Q68.4 -18.1 66.3 -17.4L66.3 -17.4Q63.8 -16.6 62.1 -15.8Q60.5 -15 59.5 -14Q58.5 -13 58.1 -11.6Q57.7 -10.3 57.7 -8.5L57.7 -8.5M93.2 -34.1Q93.2 -37 96 -37L96 -37L100.9 -37Q102.5 -37 102.9 -36Q103.4 -35.1 103.4 -34.1L103.4 -34.1L103.4 -30.6Q103.8 -31.8 104.6 -33Q105.5 -34.3 106.8 -35.4Q108.1 -36.4 109.7 -37Q111.3 -37.7 113.2 -37.7L113.2 -37.7Q120.6 -37.7 124.6 -33.6Q128.6 -29.4 128.6 -21.6L128.6 -21.6L128.6 -0.7Q128.6 1.9 126.2 1.9L126.2 1.9L120.9 1.9Q119.7 1.9 119.1 1.4Q118.4 0.8 118.4 -0.7L118.4 -0.7L118.4 -24Q118.4 -26.4 117.8 -28.2Q117.2 -29.9 116.2 -30.9Q115.1 -32 113.8 -32.4Q112.4 -32.9 110.8 -32.9L110.8 -32.9Q109.2 -32.9 107.8 -31.9Q106.4 -31 105.4 -29.5Q104.5 -28.1 103.9 -26.5Q103.4 -24.8 103.4 -23.5L103.4 -23.5L103.4 -0.7Q103.4 1.9 101 1.9L101 1.9L95.7 1.9Q94.5 1.9 93.9 1.4Q93.2 0.8 93.2 -0.7L93.2 -0.7L93.2 -34.1M135.9 -17.6Q135.9 -23 137.7 -26.9Q139.4 -30.7 142.2 -33.1Q145 -35.5 148.5 -36.6Q152 -37.7 155.4 -37.7L155.4 -37.7Q158.8 -37.7 162.2 -36.7Q165.7 -35.7 168.5 -33.3Q171.4 -31 173.2 -27.1Q175 -23.3 175 -17.6L175 -17.6Q175 -12.2 173.4 -8.3Q171.7 -4.5 169 -2.1Q166.2 0.4 162.7 1.5Q159.2 2.7 155.4 2.7L155.4 2.7Q152 2.7 148.5 1.6Q145 0.5 142.2 -1.9Q139.4 -4.2 137.7 -8.1Q135.9 -12 135.9 -17.6L135.9 -17.6M146.8 -17.6Q146.8 -13.2 147.5 -10.1Q148.2 -7 149.4 -5Q150.6 -3 152.1 -2.1Q153.7 -1.1 155.4 -1.1L155.4 -1.1Q157.2 -1.1 158.8 -2.1Q160.3 -3 161.5 -5Q162.7 -7 163.4 -10.1Q164.1 -13.2 164.1 -17.6L164.1 -17.6Q164.1 -21.9 163.4 -25Q162.7 -28.2 161.5 -30.2Q160.3 -32.2 158.8 -33.2Q157.2 -34.1 155.4 -34.1L155.4 -34.1Q153.7 -34.1 152.1 -33.2Q150.6 -32.2 149.4 -30.2Q148.2 -28.2 147.5 -25Q146.8 -21.9 146.8 -17.6L146.8 -17.6M181 -34.1Q181 -37 183.9 -37L183.9 -37L188.7 -37Q190.3 -37 190.8 -36Q191.2 -35.1 191.2 -34.1L191.2 -34.1L191.2 -30.6Q192.7 -33.6 195.6 -35.6Q198.4 -37.7 202.1 -37.7L202.1 -37.7Q207 -37.7 210.5 -35.4Q214.1 -33 215.4 -29.2L215.4 -29.2Q217.4 -33.1 220.5 -35.4Q223.5 -37.7 228 -37.7L228 -37.7Q231.8 -37.7 234.4 -36.6Q237 -35.6 238.6 -33.5Q240.2 -31.5 240.9 -28.5Q241.6 -25.5 241.6 -21.6L241.6 -21.6L241.6 -0.7Q241.6 1.9 239.3 1.9L239.3 1.9L233.9 1.9Q232.8 1.9 232.1 1.4Q231.4 0.8 231.4 -0.7L231.4 -0.7L231.4 -24Q231.4 -28.9 229.9 -31.2Q228.4 -33.4 225.6 -33.4L225.6 -33.4Q224.1 -33.4 222.5 -32.5Q221 -31.6 219.7 -30.3Q218.4 -29 217.5 -27.5Q216.6 -26.1 216.4 -24.9L216.4 -24.9L216.4 -0.7Q216.4 1.9 214.1 1.9L214.1 1.9L208.7 1.9Q207.6 1.9 206.9 1.4Q206.2 0.8 206.2 -0.7L206.2 -0.7L206.2 -24Q206.2 -28.9 204.8 -31.2Q203.3 -33.4 199.7 -33.4L199.7 -33.4Q198.1 -33.4 196.7 -32.5Q195.3 -31.7 194.2 -30.4Q193 -29.2 192.3 -27.7Q191.5 -26.2 191.2 -24.9L191.2 -24.9L191.2 -0.7Q191.2 1.9 188.9 1.9L188.9 1.9L183.5 1.9Q182.4 1.9 181.7 1.4Q181 0.8 181 -0.7L181 -0.7L181 -34.1M249 -17.6Q249 -22.8 250.6 -26.6Q252.2 -30.5 254.9 -32.9Q257.6 -35.4 261.2 -36.5Q264.7 -37.7 268.6 -37.7L268.6 -37.7Q272.9 -37.7 276.3 -36.3Q279.7 -34.8 282.1 -32.5Q284.5 -30.2 285.7 -27.1Q286.9 -24.1 286.8 -20.9L286.8 -20.9Q286.8 -18 285.2 -17.1Q283.7 -16.1 280.9 -16.1L280.9 -16.1L260.1 -16.1Q260.1 -13.6 260.5 -11Q260.9 -8.4 261.8 -6.1Q262.8 -3.9 264.5 -2.5Q266.3 -1.1 269 -1.1L269 -1.1Q271.2 -1.1 272.6 -2.2Q274 -3.4 275.1 -4.9Q276.1 -6.5 276.8 -8.1Q277.6 -9.7 278.2 -10.7L278.2 -10.7Q278.9 -11.7 280.1 -12Q281.2 -12.2 283.3 -11.1L283.3 -11.1Q286 -9.7 286.4 -8.6Q286.8 -7.6 286.1 -6.3L286.1 -6.3Q283.6 -1.9 279.1 0.4Q274.7 2.7 269.3 2.7L269.3 2.7Q265.1 2.7 261.4 1.5Q257.8 0.3 255 -2.2Q252.2 -4.7 250.6 -8.5Q249 -12.3 249 -17.6L249 -17.6M275.9 -19.7Q275.9 -22.2 275.8 -24.8Q275.8 -27.4 275 -29.4Q274.3 -31.5 272.8 -32.8Q271.2 -34.1 268.3 -34.1L268.3 -34.1Q265.5 -34.1 263.8 -32.8Q262.2 -31.4 261.4 -29.3Q260.5 -27.2 260.3 -24.7Q260.1 -22.1 260.1 -19.7L260.1 -19.7L275.9 -19.7M290.1 -35.3Q290.1 -37 291.6 -37L291.6 -37L295.6 -37L295.6 -46.4Q295.6 -47.5 296.3 -48.4Q296.9 -49.3 298.4 -49.3L298.4 -49.3L303.7 -49.3Q304.9 -49.3 305.7 -48.5Q306.6 -47.6 306.6 -46.4L306.6 -46.4L306.6 -37L312.3 -37Q313.8 -37 313.8 -35.3L313.8 -35.3Q313.8 -33.4 312.3 -33.4L312.3 -33.4L306.6 -33.4L306.6 -10.6Q306.6 -6.3 307.4 -3.9Q308.2 -1.5 309.9 -1.5L309.9 -1.5Q311.1 -1.5 312.4 -2Q313.8 -2.4 314.5 -2.4L314.5 -2.4Q315.5 -2.4 315.8 -2.1Q316 -1.7 316 -0.8L316 -0.8Q316 0.5 315.5 0.9Q315.1 1.2 314.3 1.6L314.3 1.6Q313.5 1.9 311.8 2.3Q310.2 2.7 308.8 2.7L308.8 2.7Q301.5 2.7 298.5 -0.4Q295.6 -3.5 295.6 -9.9L295.6 -9.9L295.6 -33.4L291.6 -33.4Q290.1 -33.4 290.1 -35.3L290.1 -35.3M319.3 -17.6Q319.3 -22.8 320.9 -26.6Q322.6 -30.5 325.3 -32.9Q328 -35.4 331.5 -36.5Q335.1 -37.7 338.9 -37.7L338.9 -37.7Q343.2 -37.7 346.6 -36.3Q350.1 -34.8 352.4 -32.5Q354.8 -30.2 356 -27.1Q357.3 -24.1 357.1 -20.9L357.1 -20.9Q357.1 -18 355.6 -17.1Q354 -16.1 351.2 -16.1L351.2 -16.1L330.4 -16.1Q330.4 -13.6 330.8 -11Q331.2 -8.4 332.2 -6.1Q333.1 -3.9 334.9 -2.5Q336.6 -1.1 339.3 -1.1L339.3 -1.1Q341.5 -1.1 342.9 -2.2Q344.4 -3.4 345.4 -4.9Q346.5 -6.5 347.2 -8.1Q347.9 -9.7 348.6 -10.7L348.6 -10.7Q349.3 -11.7 350.4 -12Q351.6 -12.2 353.7 -11.1L353.7 -11.1Q356.3 -9.7 356.8 -8.6Q357.2 -7.6 356.5 -6.3L356.5 -6.3Q354 -1.9 349.5 0.4Q345 2.7 339.6 2.7L339.6 2.7Q335.4 2.7 331.8 1.5Q328.1 0.3 325.3 -2.2Q322.6 -4.7 320.9 -8.5Q319.3 -12.3 319.3 -17.6L319.3 -17.6M346.2 -19.7Q346.2 -22.2 346.2 -24.8Q346.1 -27.4 345.4 -29.4Q344.7 -31.5 343.1 -32.8Q341.6 -34.1 338.6 -34.1L338.6 -34.1Q335.8 -34.1 334.2 -32.8Q332.6 -31.4 331.7 -29.3Q330.8 -27.2 330.6 -24.7Q330.4 -22.1 330.4 -19.7L330.4 -19.7L346.2 -19.7M364.5 -34.1Q364.5 -37 367.3 -37L367.3 -37L372.9 -37Q374.5 -37 374.9 -36Q375.4 -35.1 375.4 -34.1L375.4 -34.1L375.4 -31.3Q375.8 -32.5 376.5 -33.7Q377.2 -34.8 378.2 -35.7Q379.2 -36.6 380.5 -37.2Q381.8 -37.7 383.4 -37.7L383.4 -37.7Q385.5 -37.7 387.1 -37.3Q388.7 -36.9 389.9 -35.9L389.9 -35.9Q390.9 -34.9 391 -33.7Q391.2 -32.5 389.3 -30.7L389.3 -30.7Q387.9 -29.5 386.8 -29Q385.6 -28.4 385.1 -29.3L385.1 -29.3Q384 -31 383 -32Q382 -33 380.7 -33L380.7 -33Q379.9 -33 379 -32.4Q378.1 -31.8 377.5 -30.7Q376.8 -29.7 376.2 -28.4Q375.7 -27.1 375.4 -25.8L375.4 -25.8L375.4 -0.7Q375.4 1.9 373 1.9L373 1.9L367 1.9Q365.8 1.9 365.1 1.4Q364.5 0.8 364.5 -0.7L364.5 -0.7L364.5 -34.1M399.3 -32.6Q398.9 -33.8 399 -34.3Q399.2 -34.7 400.4 -35.3L400.4 -35.3Q405.6 -37.9 409.9 -41.1Q414.2 -44.4 418.2 -49.4L418.2 -49.4Q419.3 -50.8 420.2 -51.1Q421.1 -51.3 421.6 -51.3L421.6 -51.3L425.2 -51.3Q426 -51.3 426.7 -50.8Q427.4 -50.3 427.4 -48.8L427.4 -48.8L427.4 -1.4Q427.4 0.1 426.9 1Q426.4 1.9 424.5 1.9L424.5 1.9L418.6 1.9Q417 1.9 416.4 1Q415.9 0.1 415.9 -1.5L415.9 -1.5L415.9 -40.5Q413.7 -38.6 410.1 -36.1Q406.4 -33.6 401.7 -31.7L401.7 -31.7Q401 -31.4 400.4 -31.5Q399.7 -31.6 399.3 -32.6L399.3 -32.6M445.1 -22.8Q445.1 -29.5 446.4 -34.8Q447.7 -40.1 450.4 -43.8Q453.1 -47.4 457.2 -49.4Q461.3 -51.3 466.9 -51.3L466.9 -51.3Q471.7 -51.3 475.2 -50.1Q478.6 -48.9 480.7 -47.1Q482.8 -45.3 483.8 -43.2Q484.8 -41.1 484.8 -39.4L484.8 -39.4Q484.9 -36.6 480.4 -36.2L480.4 -36.2Q478.2 -36.1 477.2 -36.5Q476.2 -36.9 475.6 -38.7L475.6 -38.7Q475.1 -40.2 474.4 -41.7Q473.8 -43.2 472.7 -44.4Q471.7 -45.6 470.2 -46.3Q468.7 -47 466.6 -47L466.6 -47Q464 -47 462.3 -46Q460.5 -44.9 459.3 -43.2Q458.1 -41.5 457.5 -39.3Q456.8 -37.1 456.4 -34.8Q456 -32.5 455.9 -30.3Q455.8 -28.1 455.6 -26.4L455.6 -26.4Q457.2 -28.8 460.3 -30.4Q463.5 -32 467.7 -32L467.7 -32Q471.7 -32 475.2 -30.9Q478.7 -29.8 481.2 -27.7Q483.8 -25.6 485.3 -22.4Q486.8 -19.2 486.8 -15.1L486.8 -15.1Q486.8 -11 485.3 -7.7Q483.8 -4.5 481 -2.1Q478.3 0.2 474.4 1.4Q470.6 2.7 465.9 2.7L465.9 2.7Q461.8 2.7 458 1.5Q454.2 0.3 451.4 -2.6Q448.6 -5.5 446.8 -10.4Q445.1 -15.3 445.1 -22.8L445.1 -22.8M456.7 -15.6Q456.7 -11.7 457.5 -9.1Q458.3 -6.5 459.6 -4.8Q460.9 -3.2 462.6 -2.4Q464.3 -1.7 466.2 -1.7L466.2 -1.7Q470.7 -1.7 473.3 -5.1Q475.9 -8.6 475.9 -15L475.9 -15Q475.9 -21 473.7 -24.4Q471.4 -27.8 466.1 -27.8L466.1 -27.8Q461.9 -27.8 459.3 -24.9Q456.7 -22 456.7 -15.6L456.7 -15.6M495.4 -5.6Q495.4 -6.4 495.9 -6.9Q496.4 -7.5 497.2 -7.5L497.2 -7.5L502.8 -7.5Q503.6 -7.5 504.2 -6.9Q504.7 -6.4 504.7 -5.6L504.7 -5.6L504.7 0Q504.6 0.8 504.1 1.3Q503.6 1.9 502.8 1.9L502.8 1.9L497.2 1.9Q496.4 1.9 495.9 1.3Q495.4 0.8 495.4 0L495.4 0L495.4 -5.6M513.5 -16.8Q513.5 -20.9 514.6 -24.7Q515.7 -28.5 518 -31.4Q520.4 -34.3 524.2 -36Q528 -37.7 533.4 -37.7L533.4 -37.7Q537.1 -37.7 540.1 -36.9Q543 -36.1 545.2 -34.6Q547.3 -33.2 548.7 -31.2Q550.1 -29.2 550.6 -27L550.6 -27Q550.9 -25.3 550 -24.7Q549.1 -24 546.8 -23.5L546.8 -23.5Q543.8 -22.9 542.6 -23.2Q541.4 -23.5 540.9 -25.1L540.9 -25.1Q540.3 -27.1 539.7 -28.7Q539.1 -30.3 538.3 -31.5Q537.5 -32.8 536.3 -33.4Q535.1 -34.1 533.3 -34.1L533.3 -34.1Q530.8 -34.1 529 -32.9Q527.2 -31.7 526 -29.4Q524.9 -27.1 524.3 -23.9Q523.7 -20.7 523.7 -16.8L523.7 -16.8Q523.7 -12.5 524.5 -9.6Q525.3 -6.6 526.6 -4.7Q528 -2.8 529.7 -1.9Q531.4 -1.1 533.2 -1.1L533.2 -1.1Q535.1 -1.1 536.4 -1.9Q537.7 -2.7 538.6 -4Q539.6 -5.3 540.3 -7Q540.9 -8.7 541.7 -10.5L541.7 -10.5Q541.9 -11.2 542.3 -11.8Q542.7 -12.4 543.4 -12.7Q544 -13 545 -12.9Q546 -12.7 547.4 -12.2L547.4 -12.2Q549.6 -11.4 550.4 -10.4Q551.2 -9.4 550.7 -7.8L550.7 -7.8Q549.6 -5.2 547.8 -3.2Q546.1 -1.3 543.9 0Q541.7 1.3 539 2Q536.3 2.7 533.4 2.7L533.4 2.7Q529 2.7 525.3 1.4Q521.7 0.1 519 -2.4Q516.4 -4.9 514.9 -8.5Q513.5 -12.1 513.5 -16.8L513.5 -16.8M558.6 -34.1Q558.6 -37 561.5 -37L561.5 -37L566.3 -37Q567.9 -37 568.3 -36Q568.8 -35.1 568.8 -34.1L568.8 -34.1L568.8 -30.6Q569.2 -31.8 570 -33Q570.9 -34.3 572.2 -35.4Q573.5 -36.4 575.1 -37Q576.7 -37.7 578.6 -37.7L578.6 -37.7Q586 -37.7 590 -33.6Q594 -29.4 594 -21.6L594 -21.6L594 -0.7Q594 1.9 591.6 1.9L591.6 1.9L586.3 1.9Q585.1 1.9 584.5 1.4Q583.8 0.8 583.8 -0.7L583.8 -0.7L583.8 -24Q583.8 -26.4 583.2 -28.2Q582.6 -29.9 581.6 -30.9Q580.5 -32 579.2 -32.4Q577.8 -32.9 576.2 -32.9L576.2 -32.9Q574.6 -32.9 573.2 -31.9Q571.8 -31 570.9 -29.5Q569.9 -28.1 569.3 -26.5Q568.8 -24.8 568.8 -23.5L568.8 -23.5L568.8 -0.7Q568.8 1.9 566.4 1.9L566.4 1.9L561.1 1.9Q559.9 1.9 559.3 1.4Q558.6 0.8 558.6 -0.7L558.6 -0.7L558.6 -34.1z" style="stroke-width: 0;" fill="#000000" id="masknamepathdata" stroke="#000000" paint-order="stroke" transform="matrix(1,0,0,1,0,0)"/></mask>
          </defs>
          
        </g>
        </svg>